<svg xmlns="http://www.w3.org/2000/svg" xmlns:xlink="http://www.w3.org/1999/xlink" xmlns:a="http://ns.adobe.com/AdobeSVGViewerExtensions/3.0/" version="1.1" x="0px" y="0px" viewBox="-5 -8 32 40" overflow="visible" enable-background="new -5 -8 32 32" xml:space="preserve"><path d="M8.383,0.076C8.26,0.023,8.129,0,8,0C7.74,0,7.484,0.102,7.293,0.293l-7,7c-0.391,0.391-0.391,1.023,0,1.414l7,7  C7.484,15.898,7.74,16,8,16c0.129,0,0.26-0.025,0.383-0.076C8.756,15.77,9,15.404,9,15V1C9,0.596,8.756,0.23,8.383,0.076z"/><path d="M21.707,7.293l-7-7C14.516,0.102,14.26,0,14,0c-0.129,0-0.26,0.025-0.383,0.076C13.244,0.23,13,0.596,13,1v14  c0,0.404,0.244,0.77,0.617,0.924C13.74,15.977,13.871,16,14,16c0.26,0,0.516-0.102,0.707-0.293l7-7  C22.098,8.316,22.098,7.684,21.707,7.293z"/><text x="-5" y="39" fill="#000000" font-size="5px" font-weight="bold" font-family="'Helvetica Neue', Helvetica, Arial-Unicode, Arial, Sans-serif">Created by Shmidt Sergey</text><text x="-5" y="44" fill="#000000" font-size="5px" font-weight="bold" font-family="'Helvetica Neue', Helvetica, Arial-Unicode, Arial, Sans-serif">from the Noun Project</text></svg>